<svg xmlns="http://www.w3.org/2000/svg" xmlns:xlink="http://www.w3.org/1999/xlink" contentStyleType="text/css" data-diagram-type="CLASS" height="795px" preserveAspectRatio="none" style="width:679px;height:795px;background:#FFFFFF;" version="1.1" viewBox="0 0 679 795" width="679px" zoomAndPan="magnify"><defs/><g><!--class Project--><g id="elem_Project"><rect codeLine="1" fill="#F1F1F1" height="145.7813" id="Project" rx="2.5" ry="2.5" style="stroke:#181818;stroke-width:0.5;" width="190.8281" x="121.92" y="7"/><ellipse cx="188.8575" cy="23" fill="#ADD1B2" rx="11" ry="11" style="stroke:#181818;stroke-width:1;"/><path d="M192.9669,29 L185.2481,29 L185.2481,16.6094 L192.9669,16.6094 L192.9669,18.7656 L187.7013,18.7656 L187.7013,21.4375 L192.4669,21.4375 L192.4669,23.5938 L187.7013,23.5938 L187.7013,26.8438 L192.9669,26.8438 L192.9669,29 Z " fill="#000000"/><text fill="#000000" font-family="sans-serif" font-size="14" lengthAdjust="spacing" textLength="48.4531" x="209.3575" y="27.8467">Project</text><line style="stroke:#181818;stroke-width:0.5;" x1="122.92" x2="311.7481" y1="39" y2="39"/><ellipse cx="132.92" cy="52.6484" fill="#000000" rx="3" ry="3" style="stroke:#000000;stroke-width:1;"/><text fill="#000000" font-family="sans-serif" font-size="14" lengthAdjust="spacing" textLength="140.1299" x="141.92" y="55.9951">ID_Project : INT (PK)</text><line style="stroke:#181818;stroke-width:1;" x1="122.92" x2="311.7481" y1="63.2969" y2="63.2969"/><text fill="#000000" font-family="sans-serif" font-size="14" lengthAdjust="spacing" textLength="178.8281" x="127.92" y="80.292">Nama_Project : VARCHAR</text><text fill="#000000" font-family="sans-serif" font-size="14" lengthAdjust="spacing" textLength="113.668" x="127.92" y="96.5889">Deskripsi : TEXT</text><text fill="#000000" font-family="sans-serif" font-size="14" lengthAdjust="spacing" textLength="151.9287" x="127.92" y="112.8857">Tanggal_Mulai : DATE</text><text fill="#000000" font-family="sans-serif" font-size="14" lengthAdjust="spacing" textLength="164.3838" x="127.92" y="129.1826">Tanggal_Selesai : DATE</text><text fill="#000000" font-family="sans-serif" font-size="14" lengthAdjust="spacing" textLength="126.7178" x="127.92" y="145.4795">Status : VARCHAR</text></g><!--class Transaksi--><g id="elem_Transaksi"><rect codeLine="11" fill="#F1F1F1" height="145.7813" id="Transaksi" rx="2.5" ry="2.5" style="stroke:#181818;stroke-width:0.5;" width="378.1807" x="28.24" y="229.78"/><ellipse cx="179.6184" cy="245.78" fill="#ADD1B2" rx="11" ry="11" style="stroke:#181818;stroke-width:1;"/><path d="M183.7278,251.78 L176.009,251.78 L176.009,239.3894 L183.7278,239.3894 L183.7278,241.5456 L178.4622,241.5456 L178.4622,244.2175 L183.2278,244.2175 L183.2278,246.3737 L178.4622,246.3737 L178.4622,249.6237 L183.7278,249.6237 L183.7278,251.78 Z " fill="#000000"/><text fill="#000000" font-family="sans-serif" font-size="14" lengthAdjust="spacing" textLength="66.9238" x="200.1184" y="250.6267">Transaksi</text><line style="stroke:#181818;stroke-width:0.5;" x1="29.24" x2="405.4207" y1="261.78" y2="261.78"/><ellipse cx="39.24" cy="275.4284" fill="#000000" rx="3" ry="3" style="stroke:#000000;stroke-width:1;"/><text fill="#000000" font-family="sans-serif" font-size="14" lengthAdjust="spacing" textLength="158.6006" x="48.24" y="278.7751">ID_Transaksi : INT (PK)</text><line style="stroke:#181818;stroke-width:1;" x1="29.24" x2="405.4207" y1="286.0769" y2="286.0769"/><text fill="#000000" font-family="sans-serif" font-size="14" lengthAdjust="spacing" textLength="139.7402" x="34.24" y="303.072">ID_Project : INT (FK)</text><text fill="#000000" font-family="sans-serif" font-size="14" lengthAdjust="spacing" textLength="366.1807" x="34.24" y="319.3689">Jenis_Transaksi : ENUM('Pemasukan', 'Pengeluaran')</text><text fill="#000000" font-family="sans-serif" font-size="14" lengthAdjust="spacing" textLength="124.585" x="34.24" y="335.6657">Jumlah : DECIMAL</text><text fill="#000000" font-family="sans-serif" font-size="14" lengthAdjust="spacing" textLength="181.542" x="34.24" y="351.9626">Tanggal_Transaksi : DATE</text><text fill="#000000" font-family="sans-serif" font-size="14" lengthAdjust="spacing" textLength="130.6006" x="34.24" y="368.2595">Keterangan : TEXT</text></g><!--class Nota--><g id="elem_Nota"><rect codeLine="21" fill="#F1F1F1" height="113.1875" id="Nota" rx="2.5" ry="2.5" style="stroke:#181818;stroke-width:0.5;" width="420.666" x="7" y="452.56"/><ellipse cx="196.5298" cy="468.56" fill="#ADD1B2" rx="11" ry="11" style="stroke:#181818;stroke-width:1;"/><path d="M200.6392,474.56 L192.9204,474.56 L192.9204,462.1694 L200.6392,462.1694 L200.6392,464.3256 L195.3735,464.3256 L195.3735,466.9975 L200.1392,466.9975 L200.1392,469.1537 L195.3735,469.1537 L195.3735,472.4037 L200.6392,472.4037 L200.6392,474.56 Z " fill="#000000"/><text fill="#000000" font-family="sans-serif" font-size="14" lengthAdjust="spacing" textLength="33.1064" x="217.0298" y="473.4067">Nota</text><line style="stroke:#181818;stroke-width:0.5;" x1="8" x2="426.666" y1="484.56" y2="484.56"/><ellipse cx="18" cy="498.2084" fill="#000000" rx="3" ry="3" style="stroke:#000000;stroke-width:1;"/><text fill="#000000" font-family="sans-serif" font-size="14" lengthAdjust="spacing" textLength="124.7832" x="27" y="501.5551">ID_Nota : INT (PK)</text><line style="stroke:#181818;stroke-width:1;" x1="8" x2="426.666" y1="508.8569" y2="508.8569"/><text fill="#000000" font-family="sans-serif" font-size="14" lengthAdjust="spacing" textLength="158.2109" x="13" y="525.852">ID_Transaksi : INT (FK)</text><text fill="#000000" font-family="sans-serif" font-size="14" lengthAdjust="spacing" textLength="146.6582" x="13" y="542.1489">File_Nota : VARCHAR</text><text fill="#000000" font-family="sans-serif" font-size="14" lengthAdjust="spacing" textLength="408.666" x="13" y="558.4457">Status_Verifikasi : ENUM('Pending', 'Approved', 'Rejected')</text></g><!--class User--><g id="elem_User"><rect codeLine="29" fill="#F1F1F1" height="113.1875" id="User" rx="2.5" ry="2.5" style="stroke:#181818;stroke-width:0.5;" width="210.0508" x="462.31" y="452.56"/><ellipse cx="547.1303" cy="468.56" fill="#ADD1B2" rx="11" ry="11" style="stroke:#181818;stroke-width:1;"/><path d="M551.2397,474.56 L543.5209,474.56 L543.5209,462.1694 L551.2397,462.1694 L551.2397,464.3256 L545.9741,464.3256 L545.9741,466.9975 L550.7397,466.9975 L550.7397,469.1537 L545.9741,469.1537 L545.9741,472.4037 L551.2397,472.4037 L551.2397,474.56 Z " fill="#000000"/><text fill="#000000" font-family="sans-serif" font-size="14" lengthAdjust="spacing" textLength="31.9102" x="567.6303" y="473.4067">User</text><line style="stroke:#181818;stroke-width:0.5;" x1="463.31" x2="671.3608" y1="484.56" y2="484.56"/><ellipse cx="473.31" cy="498.2084" fill="#000000" rx="3" ry="3" style="stroke:#000000;stroke-width:1;"/><text fill="#000000" font-family="sans-serif" font-size="14" lengthAdjust="spacing" textLength="123.5869" x="482.31" y="501.5551">ID_User : INT (PK)</text><line style="stroke:#181818;stroke-width:1;" x1="463.31" x2="671.3608" y1="508.8569" y2="508.8569"/><text fill="#000000" font-family="sans-serif" font-size="14" lengthAdjust="spacing" textLength="123.375" x="468.31" y="525.852">Nama : VARCHAR</text><text fill="#000000" font-family="sans-serif" font-size="14" lengthAdjust="spacing" textLength="120.9482" x="468.31" y="542.1489">Email : VARCHAR</text><text fill="#000000" font-family="sans-serif" font-size="14" lengthAdjust="spacing" textLength="198.0508" x="468.31" y="558.4457">Role : ENUM('Admin', 'User')</text></g><!--class Approval--><g id="elem_Approval"><rect codeLine="37" fill="#F1F1F1" height="145.7813" id="Approval" rx="2.5" ry="2.5" style="stroke:#181818;stroke-width:0.5;" width="345.5049" x="270.58" y="642.75"/><ellipse cx="407.8696" cy="658.75" fill="#ADD1B2" rx="11" ry="11" style="stroke:#181818;stroke-width:1;"/><path d="M411.9789,664.75 L404.2602,664.75 L404.2602,652.3594 L411.9789,652.3594 L411.9789,654.5156 L406.7133,654.5156 L406.7133,657.1875 L411.4789,657.1875 L411.4789,659.3438 L406.7133,659.3438 L406.7133,662.5938 L411.9789,662.5938 L411.9789,664.75 Z " fill="#000000"/><text fill="#000000" font-family="sans-serif" font-size="14" lengthAdjust="spacing" textLength="62.4258" x="428.3696" y="663.5967">Approval</text><line style="stroke:#181818;stroke-width:0.5;" x1="271.58" x2="615.0849" y1="674.75" y2="674.75"/><ellipse cx="281.58" cy="688.3984" fill="#000000" rx="3" ry="3" style="stroke:#000000;stroke-width:1;"/><text fill="#000000" font-family="sans-serif" font-size="14" lengthAdjust="spacing" textLength="154.1025" x="290.58" y="691.7451">ID_Approval : INT (PK)</text><line style="stroke:#181818;stroke-width:1;" x1="271.58" x2="615.0849" y1="699.0469" y2="699.0469"/><text fill="#000000" font-family="sans-serif" font-size="14" lengthAdjust="spacing" textLength="124.3936" x="276.58" y="716.042">ID_Nota : INT (FK)</text><text fill="#000000" font-family="sans-serif" font-size="14" lengthAdjust="spacing" textLength="136.1514" x="276.58" y="732.3389">ID_Admin : INT (FK)</text><text fill="#000000" font-family="sans-serif" font-size="14" lengthAdjust="spacing" textLength="333.5049" x="276.58" y="748.6357">Status_Approval : ENUM('Approved', 'Rejected')</text><text fill="#000000" font-family="sans-serif" font-size="14" lengthAdjust="spacing" textLength="177.0439" x="276.58" y="764.9326">Tanggal_Approval : DATE</text><text fill="#000000" font-family="sans-serif" font-size="14" lengthAdjust="spacing" textLength="104.5215" x="276.58" y="781.2295">Catatan : TEXT</text></g><!--link Project to Transaksi--><g id="link_Project_Transaksi"><path codeLine="47" d="M217.33,161.18 C217.33,185.7 217.33,197.09 217.33,221.59 " fill="#FFFFFF" fill-opacity="0.00000" id="Project-Transaksi" style="stroke:#181818;stroke-width:1;"/><line style="stroke:#181818;stroke-width:1;" x1="213.33" x2="221.33" y1="157.18" y2="157.18"/><line style="stroke:#181818;stroke-width:1;" x1="213.33" x2="221.33" y1="160.18" y2="160.18"/><line style="stroke:#181818;stroke-width:1;" x1="217.33" x2="217.33" y1="161.18" y2="153.18"/><line style="stroke:#181818;stroke-width:1;" x1="217.33" x2="223.33" y1="221.59" y2="229.59"/><line style="stroke:#181818;stroke-width:1;" x1="217.33" x2="211.33" y1="221.59" y2="229.59"/><line style="stroke:#181818;stroke-width:1;" x1="217.33" x2="217.33" y1="221.59" y2="229.59"/><line style="stroke:#181818;stroke-width:1;" x1="221.33" x2="213.33" y1="219.59" y2="219.59"/><text fill="#000000" font-family="sans-serif" font-size="13" lengthAdjust="spacing" textLength="55.3008" x="218.33" y="195.8469">memiliki</text></g><!--link Transaksi to Nota--><g id="link_Transaksi_Nota"><path codeLine="48" d="M217.33,384.05 C217.33,409.1 217.33,420.76 217.33,444.28 " fill="#FFFFFF" fill-opacity="0.00000" id="Transaksi-Nota" style="stroke:#181818;stroke-width:1;"/><line style="stroke:#181818;stroke-width:1;" x1="213.33" x2="221.33" y1="380.05" y2="380.05"/><line style="stroke:#181818;stroke-width:1;" x1="213.33" x2="221.33" y1="383.05" y2="383.05"/><line style="stroke:#181818;stroke-width:1;" x1="217.33" x2="217.33" y1="384.05" y2="376.05"/><line style="stroke:#181818;stroke-width:1;" x1="221.33" x2="213.33" y1="448.28" y2="448.28"/><line style="stroke:#181818;stroke-width:1;" x1="221.33" x2="213.33" y1="445.28" y2="445.28"/><line style="stroke:#181818;stroke-width:1;" x1="217.33" x2="217.33" y1="444.28" y2="452.28"/><text fill="#000000" font-family="sans-serif" font-size="13" lengthAdjust="spacing" textLength="55.3008" x="218.33" y="418.6269">memiliki</text></g><!--link Nota to Approval--><g id="link_Nota_Approval"><path codeLine="49" d="M285.0226,571.3969 C311.0326,594.9269 329.7675,611.8829 357.4675,636.9429 " fill="#FFFFFF" fill-opacity="0.00000" id="Nota-Approval" style="stroke:#181818;stroke-width:1;"/><line style="stroke:#181818;stroke-width:1;" x1="279.3728" x2="284.7398" y1="571.6798" y2="565.7472"/><line style="stroke:#181818;stroke-width:1;" x1="281.5976" x2="286.9645" y1="573.6924" y2="567.7598"/><line style="stroke:#181818;stroke-width:1;" x1="285.0226" x2="279.09" y1="571.3969" y2="566.03"/><line style="stroke:#181818;stroke-width:1;" x1="363.1173" x2="357.7502" y1="636.6602" y2="642.5927"/><line style="stroke:#181818;stroke-width:1;" x1="360.8926" x2="355.5255" y1="634.6476" y2="640.58"/><line style="stroke:#181818;stroke-width:1;" x1="357.4675" x2="363.4" y1="636.9429" y2="642.31"/><text fill="#000000" font-family="sans-serif" font-size="13" lengthAdjust="spacing" textLength="102.5146" x="331.33" y="608.8169">diverifikasi oleh</text></g><!--link User to Approval--><g id="link_User_Approval"><path codeLine="50" d="M529.3016,572.8704 C515.0316,596.4004 506.5388,610.4099 491.3388,635.4699 " fill="#FFFFFF" fill-opacity="0.00000" id="User-Approval" style="stroke:#181818;stroke-width:1;"/><line style="stroke:#181818;stroke-width:1;" x1="527.9556" x2="534.796" y1="567.376" y2="571.5244"/><line style="stroke:#181818;stroke-width:1;" x1="526.4" x2="533.2403" y1="569.9411" y2="574.0895"/><line style="stroke:#181818;stroke-width:1;" x1="529.3016" x2="533.45" y1="572.8704" y2="566.03"/><line style="stroke:#181818;stroke-width:1;" x1="491.3388" x2="492.3201" y1="635.4699" y2="645.4216"/><line style="stroke:#181818;stroke-width:1;" x1="491.3388" x2="482.0599" y1="635.4699" y2="639.1984"/><line style="stroke:#181818;stroke-width:1;" x1="491.3388" x2="487.19" y1="635.4699" y2="642.31"/><line style="stroke:#181818;stroke-width:1;" x1="495.7961" x2="488.956" y1="635.8343" y2="631.6854"/><text fill="#000000" font-family="sans-serif" font-size="13" lengthAdjust="spacing" textLength="71.7412" x="513.33" y="608.8169">melakukan</text></g><!--SRC=[TLBBRi8m4BpdAtm3gl83lKMGgfGIeH1GRsZLR8CRsq5nWbIH_djjayU6HownPrypiqPLylANhOly1xzATlQO-PuMytsBlB156BFnUZbneUdK_KAGG59sVZHxyoCNcgFE2dxKtE1ny1axC0QLfY3sgqg03SpzE1W4DYXG3qER4ifAa-v_deSNkd41IaDcPlI4U-m-vLjDhqt2Eogk1_L1k5sDHskKeAiCrEYPcOjAKLHWiaPDMIK572pZOBPO-Hy3FRHRfsY99Hey1TLwqqiAynA86dTzAEH6QolbbGjiQ-bIBbxkTrZmRvx1GAHAk4gjHFzuBF8J9lOSeNNAd2U4urPZGJYww-FtSKKXaC355HRb0ZicVYAvizhs7Soz40D1PdVGGu-eWwqzjj1EkSORUqZJXj9zH-YYIKstvncOVeCbjo-lhgVJ-ipe_YHABdZ6lHvqMJLh57G9xjx4oDY4d_gr6aCFdbjCCueaIXIGsVVy3m00]--></g></svg>