<svg xmlns="http://www.w3.org/2000/svg" xmlns:xlink="http://www.w3.org/1999/xlink" contentStyleType="text/css" data-diagram-type="CLASS" height="828px" preserveAspectRatio="none" style="width:679px;height:828px;background:#FFFFFF;" version="1.1" viewBox="0 0 679 828" width="679px" zoomAndPan="magnify"><defs/><g><!--class Project--><g id="elem_Project"><rect codeLine="1" fill="#F1F1F1" height="145.7813" id="Project" rx="2.5" ry="2.5" style="stroke:#181818;stroke-width:0.5;" width="190.8281" x="121.92" y="7"/><ellipse cx="188.8575" cy="23" fill="#ADD1B2" rx="11" ry="11" style="stroke:#181818;stroke-width:1;"/><path d="M192.9669,29 L185.2481,29 L185.2481,16.6094 L192.9669,16.6094 L192.9669,18.7656 L187.7013,18.7656 L187.7013,21.4375 L192.4669,21.4375 L192.4669,23.5938 L187.7013,23.5938 L187.7013,26.8438 L192.9669,26.8438 L192.9669,29 Z " fill="#000000"/><text fill="#000000" font-family="sans-serif" font-size="14" lengthAdjust="spacing" textLength="48.4531" x="209.3575" y="27.8467">Project</text><line style="stroke:#181818;stroke-width:0.5;" x1="122.92" x2="311.7481" y1="39" y2="39"/><ellipse cx="132.92" cy="52.6484" fill="#000000" rx="3" ry="3" style="stroke:#000000;stroke-width:1;"/><text fill="#000000" font-family="sans-serif" font-size="14" lengthAdjust="spacing" textLength="140.1299" x="141.92" y="55.9951">ID_Project : INT (PK)</text><line style="stroke:#181818;stroke-width:1;" x1="122.92" x2="311.7481" y1="63.2969" y2="63.2969"/><text fill="#000000" font-family="sans-serif" font-size="14" lengthAdjust="spacing" textLength="178.8281" x="127.92" y="80.292">Nama_Project : VARCHAR</text><text fill="#000000" font-family="sans-serif" font-size="14" lengthAdjust="spacing" textLength="113.668" x="127.92" y="96.5889">Deskripsi : TEXT</text><text fill="#000000" font-family="sans-serif" font-size="14" lengthAdjust="spacing" textLength="151.9287" x="127.92" y="112.8857">Tanggal_Mulai : DATE</text><text fill="#000000" font-family="sans-serif" font-size="14" lengthAdjust="spacing" textLength="164.3838" x="127.92" y="129.1826">Tanggal_Selesai : DATE</text><text fill="#000000" font-family="sans-serif" font-size="14" lengthAdjust="spacing" textLength="126.7178" x="127.92" y="145.4795">Status : VARCHAR</text></g><!--class Transaksi--><g id="elem_Transaksi"><rect codeLine="11" fill="#F1F1F1" height="145.7813" id="Transaksi" rx="2.5" ry="2.5" style="stroke:#181818;stroke-width:0.5;" width="378.1807" x="28.24" y="229.79"/><ellipse cx="179.6184" cy="245.79" fill="#ADD1B2" rx="11" ry="11" style="stroke:#181818;stroke-width:1;"/><path d="M183.7278,251.79 L176.009,251.79 L176.009,239.3994 L183.7278,239.3994 L183.7278,241.5556 L178.4622,241.5556 L178.4622,244.2275 L183.2278,244.2275 L183.2278,246.3837 L178.4622,246.3837 L178.4622,249.6337 L183.7278,249.6337 L183.7278,251.79 Z " fill="#000000"/><text fill="#000000" font-family="sans-serif" font-size="14" lengthAdjust="spacing" textLength="66.9238" x="200.1184" y="250.6367">Transaksi</text><line style="stroke:#181818;stroke-width:0.5;" x1="29.24" x2="405.4207" y1="261.79" y2="261.79"/><ellipse cx="39.24" cy="275.4384" fill="#000000" rx="3" ry="3" style="stroke:#000000;stroke-width:1;"/><text fill="#000000" font-family="sans-serif" font-size="14" lengthAdjust="spacing" textLength="158.6006" x="48.24" y="278.7851">ID_Transaksi : INT (PK)</text><line style="stroke:#181818;stroke-width:1;" x1="29.24" x2="405.4207" y1="286.0869" y2="286.0869"/><text fill="#000000" font-family="sans-serif" font-size="14" lengthAdjust="spacing" textLength="139.7402" x="34.24" y="303.082">ID_Project : INT (FK)</text><text fill="#000000" font-family="sans-serif" font-size="14" lengthAdjust="spacing" textLength="366.1807" x="34.24" y="319.3789">Jenis_Transaksi : ENUM('Pemasukan', 'Pengeluaran')</text><text fill="#000000" font-family="sans-serif" font-size="14" lengthAdjust="spacing" textLength="124.585" x="34.24" y="335.6757">Jumlah : DECIMAL</text><text fill="#000000" font-family="sans-serif" font-size="14" lengthAdjust="spacing" textLength="181.542" x="34.24" y="351.9726">Tanggal_Transaksi : DATE</text><text fill="#000000" font-family="sans-serif" font-size="14" lengthAdjust="spacing" textLength="130.6006" x="34.24" y="368.2695">Keterangan : TEXT</text></g><!--class Nota--><g id="elem_Nota"><rect codeLine="21" fill="#F1F1F1" height="145.7813" id="Nota" rx="2.5" ry="2.5" style="stroke:#181818;stroke-width:0.5;" width="420.666" x="7" y="452.57"/><ellipse cx="196.5298" cy="468.57" fill="#ADD1B2" rx="11" ry="11" style="stroke:#181818;stroke-width:1;"/><path d="M200.6392,474.57 L192.9204,474.57 L192.9204,462.1794 L200.6392,462.1794 L200.6392,464.3356 L195.3735,464.3356 L195.3735,467.0075 L200.1392,467.0075 L200.1392,469.1638 L195.3735,469.1638 L195.3735,472.4138 L200.6392,472.4138 L200.6392,474.57 Z " fill="#000000"/><text fill="#000000" font-family="sans-serif" font-size="14" lengthAdjust="spacing" textLength="33.1064" x="217.0298" y="473.4167">Nota</text><line style="stroke:#181818;stroke-width:0.5;" x1="8" x2="426.666" y1="484.57" y2="484.57"/><ellipse cx="18" cy="498.2184" fill="#000000" rx="3" ry="3" style="stroke:#000000;stroke-width:1;"/><text fill="#000000" font-family="sans-serif" font-size="14" lengthAdjust="spacing" textLength="124.7832" x="27" y="501.5651">ID_Nota : INT (PK)</text><line style="stroke:#181818;stroke-width:1;" x1="8" x2="426.666" y1="508.8669" y2="508.8669"/><text fill="#000000" font-family="sans-serif" font-size="14" lengthAdjust="spacing" textLength="158.2109" x="13" y="525.862">ID_Transaksi : INT (FK)</text><text fill="#000000" font-family="sans-serif" font-size="14" lengthAdjust="spacing" textLength="146.6582" x="13" y="542.1589">File_Nota : VARCHAR</text><text fill="#000000" font-family="sans-serif" font-size="14" lengthAdjust="spacing" textLength="408.666" x="13" y="558.4557">Status_Verifikasi : ENUM('Pending', 'Approved', 'Rejected')</text><text fill="#000000" font-family="sans-serif" font-size="14" lengthAdjust="spacing" textLength="168.9639" x="13" y="574.7526">Tanggal_Unggah : DATE</text><text fill="#000000" font-family="sans-serif" font-size="14" lengthAdjust="spacing" textLength="179.1426" x="13" y="591.0495">Tanggal_Verifikasi : DATE</text></g><!--class User--><g id="elem_User"><rect codeLine="31" fill="#F1F1F1" height="113.1875" id="User" rx="2.5" ry="2.5" style="stroke:#181818;stroke-width:0.5;" width="210.0508" x="462.31" y="468.86"/><ellipse cx="547.1303" cy="484.86" fill="#ADD1B2" rx="11" ry="11" style="stroke:#181818;stroke-width:1;"/><path d="M551.2397,490.86 L543.5209,490.86 L543.5209,478.4694 L551.2397,478.4694 L551.2397,480.6256 L545.9741,480.6256 L545.9741,483.2975 L550.7397,483.2975 L550.7397,485.4538 L545.9741,485.4538 L545.9741,488.7038 L551.2397,488.7038 L551.2397,490.86 Z " fill="#000000"/><text fill="#000000" font-family="sans-serif" font-size="14" lengthAdjust="spacing" textLength="31.9102" x="567.6303" y="489.7067">User</text><line style="stroke:#181818;stroke-width:0.5;" x1="463.31" x2="671.3608" y1="500.86" y2="500.86"/><ellipse cx="473.31" cy="514.5084" fill="#000000" rx="3" ry="3" style="stroke:#000000;stroke-width:1;"/><text fill="#000000" font-family="sans-serif" font-size="14" lengthAdjust="spacing" textLength="123.5869" x="482.31" y="517.8551">ID_User : INT (PK)</text><line style="stroke:#181818;stroke-width:1;" x1="463.31" x2="671.3608" y1="525.1569" y2="525.1569"/><text fill="#000000" font-family="sans-serif" font-size="14" lengthAdjust="spacing" textLength="123.375" x="468.31" y="542.152">Nama : VARCHAR</text><text fill="#000000" font-family="sans-serif" font-size="14" lengthAdjust="spacing" textLength="120.9482" x="468.31" y="558.4489">Email : VARCHAR</text><text fill="#000000" font-family="sans-serif" font-size="14" lengthAdjust="spacing" textLength="198.0508" x="468.31" y="574.7457">Role : ENUM('Admin', 'User')</text></g><!--class Approval--><g id="elem_Approval"><rect codeLine="39" fill="#F1F1F1" height="145.7813" id="Approval" rx="2.5" ry="2.5" style="stroke:#181818;stroke-width:0.5;" width="345.5049" x="80.58" y="675.35"/><ellipse cx="217.8696" cy="691.35" fill="#ADD1B2" rx="11" ry="11" style="stroke:#181818;stroke-width:1;"/><path d="M221.9789,697.35 L214.2602,697.35 L214.2602,684.9594 L221.9789,684.9594 L221.9789,687.1156 L216.7133,687.1156 L216.7133,689.7875 L221.4789,689.7875 L221.4789,691.9438 L216.7133,691.9438 L216.7133,695.1938 L221.9789,695.1938 L221.9789,697.35 Z " fill="#000000"/><text fill="#000000" font-family="sans-serif" font-size="14" lengthAdjust="spacing" textLength="62.4258" x="238.3696" y="696.1967">Approval</text><line style="stroke:#181818;stroke-width:0.5;" x1="81.58" x2="425.0849" y1="707.35" y2="707.35"/><ellipse cx="91.58" cy="720.9984" fill="#000000" rx="3" ry="3" style="stroke:#000000;stroke-width:1;"/><text fill="#000000" font-family="sans-serif" font-size="14" lengthAdjust="spacing" textLength="154.1025" x="100.58" y="724.3451">ID_Approval : INT (PK)</text><line style="stroke:#181818;stroke-width:1;" x1="81.58" x2="425.0849" y1="731.6469" y2="731.6469"/><text fill="#000000" font-family="sans-serif" font-size="14" lengthAdjust="spacing" textLength="124.3936" x="86.58" y="748.642">ID_Nota : INT (FK)</text><text fill="#000000" font-family="sans-serif" font-size="14" lengthAdjust="spacing" textLength="136.1514" x="86.58" y="764.9389">ID_Admin : INT (FK)</text><text fill="#000000" font-family="sans-serif" font-size="14" lengthAdjust="spacing" textLength="333.5049" x="86.58" y="781.2357">Status_Approval : ENUM('Approved', 'Rejected')</text><text fill="#000000" font-family="sans-serif" font-size="14" lengthAdjust="spacing" textLength="177.0439" x="86.58" y="797.5326">Tanggal_Approval : DATE</text><text fill="#000000" font-family="sans-serif" font-size="14" lengthAdjust="spacing" textLength="104.5215" x="86.58" y="813.8295">Catatan : TEXT</text></g><!--class Log_Aktivitas--><g id="elem_Log_Aktivitas"><rect codeLine="49" fill="#F1F1F1" height="129.4844" id="Log_Aktivitas" rx="2.5" ry="2.5" style="stroke:#181818;stroke-width:0.5;" width="189.0918" x="472.79" y="683.5"/><ellipse cx="516.6977" cy="699.5" fill="#ADD1B2" rx="11" ry="11" style="stroke:#181818;stroke-width:1;"/><path d="M520.807,705.5 L513.0883,705.5 L513.0883,693.1094 L520.807,693.1094 L520.807,695.2656 L515.5414,695.2656 L515.5414,697.9375 L520.307,697.9375 L520.307,700.0938 L515.5414,700.0938 L515.5414,703.3438 L520.807,703.3438 L520.807,705.5 Z " fill="#000000"/><text fill="#000000" font-family="sans-serif" font-size="14" lengthAdjust="spacing" textLength="92.8525" x="537.1216" y="704.3467">Log_Aktivitas</text><line style="stroke:#181818;stroke-width:0.5;" x1="473.79" x2="660.8818" y1="715.5" y2="715.5"/><ellipse cx="483.79" cy="729.1484" fill="#000000" rx="3" ry="3" style="stroke:#000000;stroke-width:1;"/><text fill="#000000" font-family="sans-serif" font-size="14" lengthAdjust="spacing" textLength="116.9287" x="492.79" y="732.4951">ID_Log : INT (PK)</text><line style="stroke:#181818;stroke-width:1;" x1="473.79" x2="660.8818" y1="739.7969" y2="739.7969"/><text fill="#000000" font-family="sans-serif" font-size="14" lengthAdjust="spacing" textLength="123.1973" x="478.79" y="756.792">ID_User : INT (FK)</text><text fill="#000000" font-family="sans-serif" font-size="14" lengthAdjust="spacing" textLength="78.0254" x="478.79" y="773.0889">Aksi : TEXT</text><text fill="#000000" font-family="sans-serif" font-size="14" lengthAdjust="spacing" textLength="177.0918" x="478.79" y="789.3857">Tanggal_Aksi : DATETIME</text><text fill="#000000" font-family="sans-serif" font-size="14" lengthAdjust="spacing" textLength="4.4502" x="478.79" y="805.6826">&#160;</text></g><!--link Project to Transaksi--><g id="link_Project_Transaksi"><path codeLine="58" d="M217.33,161.19 C217.33,185.71 217.33,197.09 217.33,221.6 " fill="#FFFFFF" fill-opacity="0.00000" id="Project-Transaksi" style="stroke:#181818;stroke-width:1;"/><line style="stroke:#181818;stroke-width:1;" x1="213.33" x2="221.33" y1="157.19" y2="157.19"/><line style="stroke:#181818;stroke-width:1;" x1="213.33" x2="221.33" y1="160.19" y2="160.19"/><line style="stroke:#181818;stroke-width:1;" x1="217.33" x2="217.33" y1="161.19" y2="153.19"/><line style="stroke:#181818;stroke-width:1;" x1="217.33" x2="223.33" y1="221.6" y2="229.6"/><line style="stroke:#181818;stroke-width:1;" x1="217.33" x2="211.33" y1="221.6" y2="229.6"/><line style="stroke:#181818;stroke-width:1;" x1="217.33" x2="217.33" y1="221.6" y2="229.6"/><line style="stroke:#181818;stroke-width:1;" x1="221.33" x2="213.33" y1="219.6" y2="219.6"/><text fill="#000000" font-family="sans-serif" font-size="13" lengthAdjust="spacing" textLength="55.3008" x="218.33" y="195.8569">memiliki</text></g><!--link Transaksi to Nota--><g id="link_Transaksi_Nota"><path codeLine="59" d="M217.33,383.97 C217.33,408.49 217.33,419.87 217.33,444.38 " fill="#FFFFFF" fill-opacity="0.00000" id="Transaksi-Nota" style="stroke:#181818;stroke-width:1;"/><line style="stroke:#181818;stroke-width:1;" x1="213.33" x2="221.33" y1="379.97" y2="379.97"/><line style="stroke:#181818;stroke-width:1;" x1="213.33" x2="221.33" y1="382.97" y2="382.97"/><line style="stroke:#181818;stroke-width:1;" x1="217.33" x2="217.33" y1="383.97" y2="375.97"/><line style="stroke:#181818;stroke-width:1;" x1="221.33" x2="213.33" y1="448.38" y2="448.38"/><line style="stroke:#181818;stroke-width:1;" x1="221.33" x2="213.33" y1="445.38" y2="445.38"/><line style="stroke:#181818;stroke-width:1;" x1="217.33" x2="217.33" y1="444.38" y2="452.38"/><text fill="#000000" font-family="sans-serif" font-size="13" lengthAdjust="spacing" textLength="55.3008" x="218.33" y="418.6369">memiliki</text></g><!--link Nota to Approval--><g id="link_Nota_Approval"><path codeLine="60" d="M230.408,606.6456 C234.408,631.1656 236.2909,642.7645 240.2909,667.2645 " fill="#FFFFFF" fill-opacity="0.00000" id="Nota-Approval" style="stroke:#181818;stroke-width:1;"/><line style="stroke:#181818;stroke-width:1;" x1="225.8162" x2="233.7118" y1="603.3418" y2="602.0538"/><line style="stroke:#181818;stroke-width:1;" x1="226.2992" x2="234.1948" y1="606.3027" y2="605.0147"/><line style="stroke:#181818;stroke-width:1;" x1="230.408" x2="229.12" y1="606.6456" y2="598.75"/><line style="stroke:#181818;stroke-width:1;" x1="244.8832" x2="236.9877" y1="670.5677" y2="671.8568"/><line style="stroke:#181818;stroke-width:1;" x1="244.3998" x2="236.5043" y1="667.6069" y2="668.896"/><line style="stroke:#181818;stroke-width:1;" x1="240.2909" x2="241.58" y1="667.2645" y2="675.16"/><text fill="#000000" font-family="sans-serif" font-size="13" lengthAdjust="spacing" textLength="102.5146" x="238.33" y="641.4169">diverifikasi oleh</text></g><!--link User to Approval--><g id="link_User_Approval"><path codeLine="61" d="M481.1455,587.061 C441.1755,615.161 405.3744,640.3389 362.6044,670.4089 " fill="#FFFFFF" fill-opacity="0.00000" id="User-Approval" style="stroke:#181818;stroke-width:1;"/><line style="stroke:#181818;stroke-width:1;" x1="482.1172" x2="486.7182" y1="581.4882" y2="588.0328"/><line style="stroke:#181818;stroke-width:1;" x1="479.663" x2="484.264" y1="583.2136" y2="589.7581"/><line style="stroke:#181818;stroke-width:1;" x1="481.1455" x2="487.69" y1="587.061" y2="582.46"/><line style="stroke:#181818;stroke-width:1;" x1="362.6044" x2="359.5109" y1="670.4089" y2="679.9183"/><line style="stroke:#181818;stroke-width:1;" x1="362.6044" x2="352.6091" y1="670.4089" y2="670.1017"/><line style="stroke:#181818;stroke-width:1;" x1="362.6044" x2="356.06" y1="670.4089" y2="675.01"/><line style="stroke:#181818;stroke-width:1;" x1="366.5411" x2="361.94" y1="672.5308" y2="665.9864"/><text fill="#000000" font-family="sans-serif" font-size="13" lengthAdjust="spacing" textLength="71.7412" x="420.33" y="641.4169">melakukan</text></g><!--link User to Log_Aktivitas--><g id="link_User_Log_Aktivitas"><path codeLine="62" d="M567.33,590.46 C567.33,621.12 567.33,643.24 567.33,675.09 " fill="#FFFFFF" fill-opacity="0.00000" id="User-Log_Aktivitas" style="stroke:#181818;stroke-width:1;"/><line style="stroke:#181818;stroke-width:1;" x1="563.33" x2="571.33" y1="586.46" y2="586.46"/><line style="stroke:#181818;stroke-width:1;" x1="563.33" x2="571.33" y1="589.46" y2="589.46"/><line style="stroke:#181818;stroke-width:1;" x1="567.33" x2="567.33" y1="590.46" y2="582.46"/><line style="stroke:#181818;stroke-width:1;" x1="567.33" x2="573.33" y1="675.09" y2="683.09"/><line style="stroke:#181818;stroke-width:1;" x1="567.33" x2="561.33" y1="675.09" y2="683.09"/><line style="stroke:#181818;stroke-width:1;" x1="567.33" x2="567.33" y1="675.09" y2="683.09"/><line style="stroke:#181818;stroke-width:1;" x1="571.33" x2="563.33" y1="673.09" y2="673.09"/><text fill="#000000" font-family="sans-serif" font-size="13" lengthAdjust="spacing" textLength="62.1753" x="568.33" y="641.4169">mencatat</text></g><!--SRC=[XLF9Ri8m4BtdAtm3gl83lLaGLCeY50Bg3OrW6jmu3eeTf8hqtskRB3QBceipRzRtF4QXcFeXgoB_nhqYbu3exsKwtZN86vakOz9VpGRMDHpQOmaPE25R6etUQMHTOvHfmKwIQJmEFsCBnY2I1FXkKN8mZZ6DGy-nHexITwqLg58wrN-30A_ZnWK82QdkqGtSOOz7lkSqgGC-K33fvOVBpQBVMs46ian1z5w9DaI2l0GTrQlJoep3qKmSZgOBElVukDLQHZDKgF44HADDHscPAt3OMFCfaJkk3PK9uzZakfTorNAtnO9ziHGyakB0H68eqjEfoCzuCFyH6gNq_y2ZjJ77yT45UgMjj-EsaLWutApvVAzkHWypOFm6YtAEBGDwo9Yz8bDNpzlrlH82xlHkeQVQkietiff4q-KMhsLrYjOZ_Q-aazDgEG9Txz5opFDaHrF5pao1TDXe_3aHL-PcO9e-VfUqszHukWW3qxjvBLKr75ONukvSXXdZB6L11zgeYjJgjG7MhdqEvGCxT_kYB_COs6dhLavWXXnIymQz05yF4oNsHhi_]--></g></svg>